<svg width="1200" height="630" viewBox="0 0 1200 630" fill="none" xmlns="http://www.w3.org/2000/svg">
  <defs>
    <linearGradient id="bg" x1="0" y1="0" x2="1200" y2="630" gradientUnits="userSpaceOnUse">
      <stop stop-color="#020617"/>
      <stop offset="1" stop-color="#0F172A"/>
    </linearGradient>
    <linearGradient id="brand" x1="233" y1="205" x2="463" y2="425" gradientUnits="userSpaceOnUse">
      <stop stop-color="#22D3EE"/>
      <stop offset="1" stop-color="#0EA5E9"/>
    </linearGradient>
    <linearGradient id="hull" x1="188" y1="380" x2="508" y2="380" gradientUnits="userSpaceOnUse">
      <stop stop-color="#14B8A6"/>
      <stop offset="1" stop-color="#06B6D4"/>
    </linearGradient>
  </defs>

  <rect width="1200" height="630" fill="url(#bg)"/>
  <rect x="90" y="80" width="1020" height="470" rx="28" fill="#0B1220" stroke="#1E293B" stroke-width="2"/>

  <!-- Brand mark -->
  <g transform="translate(130 110)">
    <rect x="20" y="20" width="360" height="360" rx="64" fill="#0A1020" stroke="#23314A" stroke-width="2"/>
    <rect x="194" y="84" width="12" height="178" rx="6" fill="#38BDF8"/>
    <path d="M206 86L298 224H206V86Z" fill="url(#brand)"/>
    <path d="M206 142L134 250H206V142Z" fill="#67E8F9" fill-opacity="0.95"/>
    <path d="M78 286H322C301 328 260 356 200 356C140 356 99 328 78 286Z" fill="url(#hull)"/>
    <path d="M88 314H312" stroke="#A5F3FC" stroke-width="6" stroke-linecap="round" opacity="0.65"/>
  </g>

  <!-- Wordmark -->
  <text x="560" y="285" fill="#F8FAFC" font-family="Inter, Segoe UI, Arial, sans-serif" font-size="128" font-weight="800" letter-spacing="4">
    BOAT
  </text>
  <text x="560" y="342" fill="#93C5FD" font-family="Inter, Segoe UI, Arial, sans-serif" font-size="28" font-weight="600" letter-spacing="2">
    BUSINESS OPERATIONS AUTOMATION TECHNOLOGIES
  </text>
  <text x="560" y="404" fill="#94A3B8" font-family="Inter, Segoe UI, Arial, sans-serif" font-size="28" font-weight="500">
    Finance . Hospitality . School . Retail
  </text>
</svg>
